<svg xmlns="http://www.w3.org/2000/svg" aria-hidden="true" style="position:absolute;width:0;height:0;overflow:hidden">
  <defs>
  <symbol id="icon-logo" viewBox="0 0 32 32">
      <path d="M3.944 20.076 14.721 2.652l.64-.674 8.236 5.491.056 3.314 2.01 3.28-8.88 14.077-12.839-8.063z"/>
      <path stroke="#fd9222" style="stroke:var(--color2, #fd9222)" stroke-linejoin="round" stroke-linecap="round" stroke-width="2.743" d="M21.634 23.88 7.449 15.016m3.912-6.417 14.186 8.864M10.63 25.864l11.736-19.25m4.81 8.175c-3.04-1.899-4.234-3.384-2.278-6.592l-9.626-6.015-11.736 19.25 14.186 8.864 9.454-15.507z"/>
    </symbol>
    <symbol id="icon-menu" viewBox="0 0 32 32">
      <path d="M4.799 8.001a1.6 1.6 0 0 1 1.6-1.6h19.2a1.6 1.6 0 0 1 0 3.2h-19.2a1.6 1.6 0 0 1-1.6-1.6zM4.799 16.001a1.6 1.6 0 0 1 1.6-1.6h19.2a1.6 1.6 0 0 1 0 3.2h-19.2a1.6 1.6 0 0 1-1.6-1.6zM4.799 24.001a1.6 1.6 0 0 1 1.6-1.6h19.2a1.6 1.6 0 0 1 0 3.2h-19.2a1.6 1.6 0 0 1-1.6-1.6z"/>
    </symbol>
    <symbol id="icon-twitter" viewBox="0 0 30 32">
      <path stroke-linecap="round" stroke-linejoin="round" stroke-width="2.286" d="M29.206 4.572a13.83 13.83 0 0 1-3.987 1.943 5.684 5.684 0 0 0-6.321-1.581c-1.089.416-2.024 1.155-2.678 2.12s-.997 2.106-.982 3.271v1.27c-2.232.058-4.443-.437-6.437-1.441s-4.344-3.393-5.627-5.22c0 0-4.444 12.337 6.984 17.416a14.787 14.787 0 0 1-8.889 2.54c11.429 6.349 25.397 0 25.397-14.603a5.644 5.644 0 0 0-.102-1.054 9.806 9.806 0 0 0 2.641-4.66z"/>
    </symbol>
    <symbol id="icon-facebook" viewBox="0 0 30 32">
      <path stroke-linecap="round" stroke-linejoin="round" stroke-width="2.286" d="M22.857 3.302h-3.81a6.35 6.35 0 0 0-6.35 6.35v3.81h-3.81v5.079h3.81V28.7h5.079V18.541h3.81l1.27-5.079h-5.079v-3.81a1.27 1.27 0 0 1 1.27-1.27h3.81V3.303z"/>
    </symbol>
    <symbol id="icon-instagram" viewBox="0 0 30 32">
      <path stroke-linecap="round" stroke-linejoin="round" stroke-width="2.286" d="M21.587 3.302H8.889A6.349 6.349 0 0 0 2.54 9.651v12.698a6.349 6.349 0 0 0 6.349 6.349h12.698a6.349 6.349 0 0 0 6.349-6.349V9.651a6.349 6.349 0 0 0-6.349-6.349z"/>
      <path stroke-linecap="round" stroke-linejoin="round" stroke-width="2.286" d="M20.317 15.2a5.076 5.076 0 0 1-2.741 5.282 5.08 5.08 0 1 1 2.741-5.282zM22.222 9.016h.015"/>
    </symbol>
    <symbol id="icon-scroll" viewBox="0 0 32 32">
      <path d="M16.946 17.867a1.334 1.334 0 0 1-1.894 0l-6.107-6.12a1.334 1.334 0 1 0-1.894 1.88l6.12 6.12a4.001 4.001 0 0 0 5.654 0l6.12-6.12a1.337 1.337 0 0 0-.434-2.172 1.328 1.328 0 0 0-1.46.292l-6.107 6.12z" />
    </symbol>
    <symbol id="icon-spoon" viewBox="0 0 32 32">
      <path d="M15.451 14.106a5.154 5.154 0 0 1-1.177-3.282c0-4.324 5.181-8.642 10.362-8.642a5.183 5.183 0 0 1 5.181 5.182c0 5.182-4.317 10.364-8.646 10.364a5.15 5.15 0 0 1-3.281-1.177L5.132 29.312a1.73 1.73 0 0 1-2.445-2.445l12.764-12.761z" />
    </symbol>
    <symbol id="icon-coin" viewBox="0 0 32 32">
      <path d="M16 2.667c-7.333 0-13.333 6-13.333 13.333s6 13.333 13.333 13.333 13.333-6 13.333-13.333S23.333 2.667 16 2.667zm0 24c-5.867 0-10.667-4.8-10.667-10.667S10.133 5.333 16 5.333 26.667 10.133 26.667 16 21.867 26.667 16 26.667z" />
      <path d="M17.733 14.667h-3.467c-.667 0-1.2-.533-1.2-1.2s.533-1.2 1.2-1.2h4.933c.8 0 1.333-.533 1.333-1.333s-.533-1.333-1.333-1.333h-1.867v-1.2c0-.8-.533-1.333-1.333-1.333s-1.333.533-1.333 1.333v1.2h-.4c-2.133 0-3.867 1.733-3.867 3.867s1.733 3.867 3.867 3.867h3.333c.667 0 1.2.533 1.2 1.2s-.533 1.2-1.2 1.2h-4.933c-.8 0-1.333.533-1.333 1.333s.533 1.333 1.333 1.333h2v1.2c0 .8.533 1.333 1.333 1.333s1.333-.533 1.333-1.333v-1.2h.4c2.133 0 3.867-1.733 3.867-3.867s-1.733-3.867-3.867-3.867z" />
    </symbol>
    <symbol id="icon-chocolate" viewBox="0 0 32 32">
      <path d="m13.822 2.413 7.527 7.536.08-.08a.856.856 0 0 1 1.184-.013l.873.873c.305.305.315.77.083 1.094l-.004.007-.143.192 6.16 6.16c.55.55.55 1.43 0 1.98l-9.43 9.43c-.55.55-1.43.55-1.98 0l-4.447-4.447a.853.853 0 0 1-.612.317.842.842 0 0 1-.644-.246l-2.6-2.6a.856.856 0 0 1-.013-1.184l.006-.007.077-.076-7.527-7.527c-.55-.55-.55-1.43 0-1.98l9.43-9.43c.55-.55 1.43-.55 1.98 0v.001zm6.582 8.48-1.756-1.755a.59.59 0 0 0-.85 0l-3.58 3.58a.621.621 0 0 0-.179.43.602.602 0 0 0 .179.43l1.749 1.749.61-.61-1.565-1.565 3.21-3.22 1.569 1.574.613-.613zm-5.076 5.072-1.754-1.754a.59.59 0 0 0-.85 0l-3.59 3.59c-.24.23-.24.61 0 .85l1.752 1.752.616-.616-1.57-1.564 3.22-3.21 1.564 1.563.612-.611zM8.822 8.193l3.58 3.58c.24.24.62.24.85-.01l3.58-3.58a.57.57 0 0 0 .18-.42h.01c0-.15-.06-.31-.18-.43l-3.58-3.58a.602.602 0 0 0-.86 0l-3.58 3.59c-.24.23-.24.61 0 .85zm-5.07 5.07 3.58 3.58c.24.24.62.24.85 0l3.58-3.58a.578.578 0 0 0 .18-.43h.01c0-.16-.06-.31-.18-.43l-3.58-3.58a.59.59 0 0 0-.85 0l-3.59 3.59c-.24.23-.24.61 0 .85zm6.933 8.754 2.362 2.363 9.636-13.04-.655-.655-11.343 11.332z"/>
      <path d="m13.822 2.413 7.527 7.536.08-.08a.856.856 0 0 1 1.184-.013l.873.873c.305.305.315.77.083 1.094l-.004.007-.143.192 6.16 6.16c.55.55.55 1.43 0 1.98l-9.43 9.43c-.55.55-1.43.55-1.98 0l-4.447-4.447a.853.853 0 0 1-.612.317.842.842 0 0 1-.644-.246l-2.6-2.6a.856.856 0 0 1-.013-1.184l.006-.007.077-.076-7.527-7.527c-.55-.55-.55-1.43 0-1.98l9.43-9.43c.55-.55 1.43-.55 1.98 0v.001zm6.582 8.48-1.756-1.755a.59.59 0 0 0-.85 0l-3.58 3.58a.621.621 0 0 0-.179.43.602.602 0 0 0 .179.43l1.749 1.749.61-.61-1.565-1.565 3.21-3.22 1.569 1.574.613-.613zm-5.076 5.072-1.754-1.754a.59.59 0 0 0-.85 0l-3.59 3.59c-.24.23-.24.61 0 .85l1.752 1.752.616-.616-1.57-1.564 3.22-3.21 1.564 1.563.612-.611zM8.822 8.193l3.58 3.58c.24.24.62.24.85-.01l3.58-3.58a.57.57 0 0 0 .18-.42h.01c0-.15-.06-.31-.18-.43l-3.58-3.58a.602.602 0 0 0-.86 0l-3.58 3.59c-.24.23-.24.61 0 .85zm-5.07 5.07 3.58 3.58c.24.24.62.24.85 0l3.58-3.58a.578.578 0 0 0 .18-.43h.01c0-.16-.06-.31-.18-.43l-3.58-3.58a.59.59 0 0 0-.85 0l-3.59 3.59c-.24.23-.24.61 0 .85zm6.933 8.754 2.362 2.363 9.636-13.04-.655-.655-11.343 11.332z"/>
    </symbol>
    <symbol id="icon-arrow" viewBox="0 0 32 32">
      <path stroke-linejoin="round" stroke-linecap="round" stroke-width="1.333" d="M9.143 16h13.714m0 0-3.429-3.429M22.857 16l-3.429 3.429M16 30.857c8.205 0 14.857-6.652 14.857-14.857S24.205 1.143 16 1.143C7.795 1.143 1.143 7.795 1.143 16S7.795 30.857 16 30.857z"/>
    </symbol>
    <symbol id="icon-point" viewBox="0 0 32 32">
      <path fill="#4c4c4c" style="fill: var(--color1, #4c4c4c); stroke: var(--color2, #eceded)" stroke="#eceded" stroke-linejoin="miter" stroke-linecap="butt" stroke-miterlimit="4" stroke-width="4" d="M30 16c0 7.732-6.268 14-14 14s-14-6.268-14-14c0-7.732 6.268-14 14-14s14 6.268 14 14z"></path>
    </symbol>
    <symbol id="icon-close" viewBox="0 0 32 32">
      <path stroke-linejoin="round" stroke-linecap="round" stroke-width="2.286" d="M22.666 9.333 9.333 22.666m0-13.333 13.333 13.333"/>
    </symbol>
    <symbol id="icon-check" viewBox="0 0 43 32">
      <path d="M30.522.68a2.446 2.446 0 0 1 3.41.026 2.474 2.474 0 0 1 .09 3.427L20.97 20.545a2.442 2.442 0 0 1-3.532.065l-8.656-8.702a2.463 2.463 0 0 1-.78-1.761A2.48 2.48 0 0 1 8.72 8.36a2.45 2.45 0 0 1 1.778-.722 2.442 2.442 0 0 1 1.751.785l6.85 6.884L30.46.754a.88.88 0 0 1 .065-.072h-.003z" />
    </symbol>
    <symbol id="icon-phone" viewBox="0 0 32 32">
      <path stroke="none" stroke-linejoin="round" stroke-linecap="round" stroke-width="2.667" d="M29.334 22.56v4a2.655 2.655 0 0 1-1.812 2.537 2.672 2.672 0 0 1-1.094.13 26.398 26.398 0 0 1-11.507-4.093 25.999 25.999 0 0 1-8-8 26.382 26.382 0 0 1-4.093-11.56 2.657 2.657 0 0 1 .687-2.038 2.664 2.664 0 0 1 1.967-.868h4a2.67 2.67 0 0 1 2.667 2.294 17.16 17.16 0 0 0 .933 3.747 2.675 2.675 0 0 1-.6 2.814l-1.693 1.693a21.333 21.333 0 0 0 8 8l1.693-1.693a2.669 2.669 0 0 1 2.814-.6c1.21.451 2.466.764 3.747.933a2.665 2.665 0 0 1 2.293 2.707z"/>
    </symbol>
    <symbol id="icon-mail" viewBox="0 0 32 32">
      <path fill="transparent" stroke-linejoin="round" stroke-linecap="round" stroke-width="2.667" d="M5.333 5.333h21.333c1.467 0 2.667 1.2 2.667 2.667v16c0 1.467-1.2 2.667-2.667 2.667H5.333A2.675 2.675 0 0 1 2.666 24V8c0-1.467 1.2-2.667 2.667-2.667z"/>
      <path fill="transparent" stroke-linejoin="round" stroke-linecap="round" stroke-width="2.667" d="M29.333 8 16 17.333 2.667 8"/>
    </symbol>
    <symbol id="icon-user" viewBox="0 0 32 32">
      <path stroke="none" stroke-linejoin="round" stroke-linecap="round" stroke-width="2.667" d="M26.667 28v-2.667A5.334 5.334 0 0 0 21.334 20H10.667a5.332 5.332 0 0 0-5.333 5.333V28M16 14.667a5.333 5.333 0 1 0 0-10.666 5.333 5.333 0 0 0 0 10.666z"/>
    </symbol>
    <symbol id="icon-error" viewBox="0 0 32 32">
      <path fill="#e74a3b" style="fill:var(--color1, #e74a3b)" d="M14.667 20h2.667v2.667h-2.667V20zm0-10.667h2.667v8h-2.667v-8zm1.32-6.666C8.627 2.667 2.667 8.64 2.667 16s5.96 13.333 13.32 13.333c7.373 0 13.347-5.973 13.347-13.333S23.361 2.667 15.987 2.667zm.013 24c-5.893 0-10.667-4.773-10.667-10.667S10.106 5.333 16 5.333c5.893 0 10.667 4.773 10.667 10.667S21.894 26.667 16 26.667z"/>
    </symbol>
  </defs>
</svg>
